<svg version="1.1" id="Layer_1" xmlns="http://www.w3.org/2000/svg" xmlns:xlink="http://www.w3.org/1999/xlink" x="0px" y="0px"
	 width="100%" viewBox="0 0 500 500" enable-background="new 0 0 500 500" xml:space="preserve">
<path fill="#FFFFFF" opacity="1.000000" stroke="none" 
	d="
M317.000000,501.000000 
	C211.333359,501.000000 106.166718,501.000000 1.000057,501.000000 
	C1.000038,334.333405 1.000038,167.666794 1.000019,1.000146 
	C167.666565,1.000097 334.333130,1.000097 500.999756,1.000049 
	C500.999847,167.666519 500.999847,334.333038 500.999939,500.999786 
	C439.833344,501.000000 378.666656,501.000000 317.000000,501.000000 
M260.031403,385.096405 
	C228.926041,385.096405 197.820679,385.096405 166.265778,385.096405 
	C166.389221,387.303284 166.475067,388.837738 166.576172,390.645447 
	C168.562881,390.645447 170.045227,390.645416 171.527573,390.645416 
	C199.858688,390.645569 228.189819,390.651459 256.520935,390.629822 
	C258.002716,390.628693 259.484283,390.393860 261.921478,390.342010 
	C286.305359,390.342010 310.689240,390.342010 335.353119,390.342010 
	C335.208801,388.329071 335.105499,386.888367 334.986786,385.232361 
	C310.121887,385.232361 285.537415,385.232361 260.031403,385.096405 
M246.197632,272.747833 
	C254.248672,278.641449 262.215027,284.655457 270.374023,290.395630 
	C278.932434,296.416840 284.699554,296.416290 293.223633,290.378906 
	C305.979156,281.344513 318.624207,272.153442 331.270050,262.965393 
	C336.605896,259.088531 339.120972,253.902039 339.073151,247.138794 
	C338.909454,224.002228 339.021088,200.863770 339.006866,177.726044 
	C338.999847,166.307678 332.840485,160.126968 321.476898,160.075897 
	C308.995483,160.019791 296.514099,159.966553 283.957947,158.988373 
	C283.952759,150.493134 283.955261,141.997864 283.940521,133.502640 
	C283.919189,121.204102 277.794281,115.058128 265.509979,115.052147 
	C239.191345,115.039322 212.872711,115.039040 186.554077,115.052429 
	C174.374557,115.058624 168.139999,121.316223 168.131302,133.544571 
	C168.114807,156.698303 168.218948,179.852646 168.069550,203.005432 
	C168.019287,210.794754 170.786545,216.757675 177.185791,221.304581 
	C189.669067,230.174423 201.878387,239.434616 214.474335,248.137787 
	C217.748810,250.400284 222.032257,251.202499 226.067169,253.405746 
	C229.430420,263.057709 238.372330,266.840668 246.197632,272.747833 
M187.352890,287.153168 
	C189.894257,278.850372 194.708008,272.791138 204.257675,270.742950 
	C194.746429,268.714874 189.647293,262.861664 186.930771,253.970505 
	C184.871414,263.431213 179.029907,268.399261 169.915039,270.802948 
	C179.179993,272.854095 184.466949,278.453064 187.352890,287.153168 
M309.252167,134.075836 
	C312.499664,138.259567 315.747162,142.443298 318.782837,146.354156 
	C320.213013,143.638290 321.465820,139.435516 324.171265,136.637100 
	C326.849945,133.866348 330.993988,132.512253 335.329132,130.066284 
	C325.884674,128.308319 320.883331,122.644257 318.193054,113.953392 
	C315.927490,123.081055 310.149506,128.167480 300.471375,130.465149 
	C304.032990,131.910782 306.309021,132.834595 309.252167,134.075836 
M222.671326,342.321259 
	C222.625641,338.337738 222.768661,334.341187 222.495361,330.373352 
	C221.908844,321.858185 219.548065,319.760162 211.425247,319.819885 
	C210.729782,316.475281 210.048843,313.200562 209.367905,309.925873 
	C208.507111,310.007202 207.646317,310.088562 206.785522,310.169922 
	C206.785522,312.610870 206.766235,315.052032 206.788910,317.492798 
	C206.884552,327.793701 206.927200,338.096161 207.187164,348.393066 
	C207.216522,349.555786 208.497375,350.686890 209.197906,351.832672 
	C209.853729,350.711945 211.043213,349.604706 211.071991,348.468109 
	C211.189529,343.825012 210.874664,339.172943 210.877548,334.524292 
	C210.879074,332.073975 210.829712,329.509216 211.526459,327.215820 
	C211.958649,325.793243 213.746536,324.782562 214.925903,323.586975 
	C216.010941,325.043884 217.916809,326.437988 218.033997,327.968994 
	C218.462524,333.567047 218.214111,339.213287 218.394424,344.835846 
	C218.460770,346.904846 219.009537,348.958435 219.338272,351.019043 
	C220.124969,351.014954 220.911667,351.010834 221.698364,351.006714 
	C222.028488,348.424377 222.358627,345.842041 222.671326,342.321259 
M178.570694,346.914062 
	C176.812897,345.848633 173.659637,344.905945 173.553146,343.695251 
	C173.202530,339.708649 173.916000,335.620422 174.386108,331.590515 
	C174.413162,331.358582 175.905380,331.235107 176.724152,331.174072 
	C177.716568,331.100037 178.794693,331.378662 179.695908,331.081116 
	C180.809341,330.713531 181.778946,329.910309 182.810699,329.295319 
	C181.705368,328.531494 180.680756,327.321960 179.476593,327.103882 
	C177.456787,326.738129 175.322617,327.003845 172.771210,327.003845 
	C173.082642,323.337494 172.677246,319.923767 173.916214,317.280945 
	C174.463531,316.113434 178.394272,316.692505 180.682953,316.081451 
	C181.354401,315.902191 181.661667,314.358948 182.135849,313.440857 
	C178.764877,313.071320 175.347580,312.245026 172.048050,312.579773 
	C170.891220,312.697144 169.201370,315.648224 169.161407,317.338562 
	C168.945755,326.460205 168.964981,335.602325 169.407471,344.712921 
	C169.504715,346.714844 171.337204,349.919678 172.913147,350.295502 
	C176.223999,351.085022 180.301865,352.486359 184.137634,348.039856 
	C182.007263,347.519318 180.724899,347.205994 178.570694,346.914062 
M274.858551,349.337891 
	C275.863708,346.250641 277.421722,343.220245 277.746429,340.063019 
	C278.252380,335.143799 278.096802,330.129089 277.832245,325.175659 
	C277.757660,323.779816 276.323608,322.456543 275.513092,321.100006 
	C274.999542,322.507874 274.108551,323.897247 274.038574,325.326813 
	C273.754913,331.121979 274.035645,336.963898 273.401062,342.710510 
	C273.220490,344.345215 270.647919,345.715820 269.172302,347.207520 
	C268.165222,345.563568 266.394501,343.966492 266.290131,342.267090 
	C265.935608,336.496429 266.283966,330.685883 266.096802,324.899231 
	C266.051727,323.505219 264.977600,322.144562 264.376709,320.768555 
	C263.908417,320.886871 263.440125,321.005219 262.971802,321.123535 
	C262.746765,322.361176 262.350250,323.595459 262.325867,324.837036 
	C262.208679,330.804321 262.107300,336.774292 262.159729,342.741943 
	C262.236145,351.437073 266.116272,353.671387 274.858551,349.337891 
M315.797485,337.803528 
	C315.699219,334.680542 315.493500,331.556396 315.527679,328.434875 
	C315.579956,323.655975 313.224426,320.224976 308.244568,320.509155 
	C305.704285,320.654083 301.526306,323.750122 301.244843,325.921417 
	C300.384949,332.554962 300.718140,339.414246 301.261627,346.131165 
	C301.572479,349.972778 305.159729,351.744812 308.548309,351.520172 
	C311.972961,351.293121 314.680695,349.050049 315.091187,345.115997 
	C315.315247,342.968353 315.488281,340.815399 315.797485,337.803528 
M230.532776,322.028351 
	C226.201401,329.019623 227.581650,336.662201 227.961838,344.206024 
	C228.216843,349.265625 230.982224,351.118622 235.799194,351.032410 
	C240.715256,350.944427 242.662918,347.920380 242.912704,343.762939 
	C243.220703,338.636414 243.227371,333.443176 242.773865,328.331146 
	C242.135910,321.139893 237.129791,318.394073 230.532776,322.028351 
M289.300018,319.834991 
	C288.609436,317.270477 287.918884,314.705963 287.228302,312.141449 
	C286.677307,312.100250 286.126282,312.059052 285.575256,312.017883 
	C284.951569,314.468048 284.327911,316.918182 283.716949,319.318420 
	C282.532379,320.282013 281.235931,321.336609 279.939514,322.391235 
	C281.279633,323.345551 282.619720,324.299866 284.243134,325.455933 
	C284.158752,327.263611 283.983673,329.405334 283.974548,331.547729 
	C283.956238,335.860657 283.883423,340.181305 284.101959,344.485107 
	C284.343781,349.246613 288.111450,350.773041 291.870270,351.476807 
	C293.264557,351.737885 295.937256,350.297028 296.439606,349.011871 
	C297.221069,347.012604 296.646179,344.483185 296.646179,342.178467 
	C296.003906,341.933411 295.361603,341.688354 294.719330,341.443298 
	C294.246979,342.291504 293.874725,343.219269 293.278595,343.969055 
	C292.413696,345.056885 291.387085,346.016174 290.429474,347.030273 
	C289.611420,345.624268 288.247955,344.277802 288.086548,342.800079 
	C287.728363,339.521301 287.940247,336.176300 287.980194,332.859009 
	C288.031311,328.617584 287.567230,324.063629 295.180603,323.103424 
	C292.559021,321.552124 291.307556,320.811584 289.300018,319.834991 
M191.700317,343.058868 
	C191.520020,338.746857 191.048248,334.418518 191.288055,330.130005 
	C191.400177,328.124634 192.378357,325.247803 193.867310,324.448364 
	C196.283295,323.151184 197.981613,325.018402 198.735291,327.744446 
	C198.946732,328.509308 200.720108,328.842346 201.777039,329.373444 
	C202.139435,328.352142 202.923737,327.272186 202.791245,326.319733 
	C202.215302,322.178802 199.162064,320.390167 195.463593,320.179535 
	C191.852280,319.973907 188.479431,321.712158 188.162552,325.532257 
	C187.628891,331.965881 187.884491,338.471436 187.979660,344.944214 
	C187.995224,346.003937 188.623047,347.622559 189.427399,347.997742 
	C191.980103,349.188507 194.814011,350.732910 197.413895,350.530579 
	C199.154999,350.395111 200.966217,347.699432 202.154480,345.782654 
	C202.575012,345.104279 201.244095,343.340179 200.712769,342.071747 
	C199.847946,342.838806 198.984055,343.606934 198.118073,344.372681 
	C197.102356,345.270844 195.868820,347.049255 195.116882,346.865112 
	C193.871826,346.560211 192.936493,344.990723 191.700317,343.058868 
M245.472870,313.045593 
	C242.644287,316.517242 242.859955,316.774902 250.381042,318.506470 
	C250.381042,327.796997 250.267990,337.192932 250.497131,346.580536 
	C250.533508,348.070709 252.110458,349.523285 252.975143,350.993256 
	C253.554565,349.472931 254.610138,347.960510 254.635513,346.431000 
	C254.791077,337.055115 254.713409,327.675385 254.713409,318.382355 
	C255.754791,318.101990 256.252747,318.052887 256.667542,317.841064 
	C258.207214,317.054840 259.719482,316.214996 261.242035,315.395264 
	C259.739136,314.639587 258.287506,313.391968 256.722809,313.228760 
	C253.278549,312.869598 249.777206,313.057953 245.472870,313.045593 
M324.885895,348.790802 
	C324.880981,341.690063 324.779419,334.586700 324.974182,327.491455 
	C325.003754,326.414734 326.409790,325.375854 327.179169,324.319489 
	C328.252808,325.199402 329.539185,325.920593 330.344849,327.000427 
	C331.296295,328.275696 331.832184,329.860962 332.733154,331.686493 
	C336.130463,328.561890 335.496521,325.470367 333.416077,323.682861 
	C331.281799,321.849152 328.057678,320.558594 325.281281,320.503448 
	C323.892670,320.475861 321.355988,323.643097 321.205170,325.515686 
	C320.608002,332.930511 320.602753,340.406586 320.696869,347.855927 
	C320.728607,350.365662 321.979126,352.231110 324.885895,348.790802 
z"/>
<path fill="#C10AFD" opacity="1.000000" stroke="none" 
	d="
M225.852280,252.675446 
	C222.032257,251.202499 217.748810,250.400284 214.474335,248.137787 
	C201.878387,239.434616 189.669067,230.174423 177.185791,221.304581 
	C170.786545,216.757675 168.019287,210.794754 168.069550,203.005432 
	C168.218948,179.852646 168.114807,156.698303 168.131302,133.544571 
	C168.139999,121.316223 174.374557,115.058624 186.554077,115.052429 
	C212.872711,115.039040 239.191345,115.039322 265.509979,115.052147 
	C277.794281,115.058128 283.919189,121.204102 283.940521,133.502640 
	C283.955261,141.997864 283.952759,150.493134 283.901093,159.500732 
	C283.844238,160.013077 283.736725,160.197876 283.362122,160.141907 
	C281.967865,160.107010 280.948242,160.128098 279.738007,159.835297 
	C278.678009,157.194122 278.024811,154.756516 276.902954,152.558060 
	C271.112091,141.209946 257.268585,135.395416 245.095169,139.074570 
	C232.626602,142.842926 224.204636,154.693283 225.312881,166.909805 
	C225.922760,173.632507 223.868896,176.409821 217.360886,176.938293 
	C213.926788,177.217163 213.925125,179.305252 213.930573,181.773682 
	C213.955521,193.087479 213.910889,204.401489 213.949738,215.715210 
	C213.984619,225.877274 212.785492,225.011093 222.809464,225.024094 
	C223.800964,225.025375 224.792221,225.193924 225.795975,225.733765 
	C225.877350,234.894775 225.946350,243.606873 225.942505,252.393417 
	C225.869675,252.467865 225.852280,252.675446 225.852280,252.675446 
z"/>
<path fill="#FEB967" opacity="1.000000" stroke="none" 
	d="
M283.938477,159.962585 
	C296.514099,159.966553 308.995483,160.019791 321.476898,160.075897 
	C332.840485,160.126968 338.999847,166.307678 339.006866,177.726044 
	C339.021088,200.863770 338.909454,224.002228 339.073151,247.138794 
	C339.120972,253.902039 336.605896,259.088531 331.270050,262.965393 
	C318.624207,272.153442 305.979156,281.344513 293.223633,290.378906 
	C284.699554,296.416290 278.932434,296.416840 270.374023,290.395630 
	C262.215027,284.655457 254.248672,278.641449 246.185562,272.279205 
	C246.289078,271.684814 246.404648,271.559082 246.862915,271.582489 
	C254.262482,274.056549 260.332367,272.090668 263.050842,266.599762 
	C266.634735,259.360840 263.582642,250.878906 255.202972,244.790176 
	C256.774567,239.825928 257.772064,238.972412 262.922150,238.935715 
	C272.901489,238.864594 282.883759,239.038712 292.860931,238.874420 
	C304.664764,238.680069 314.020691,230.378952 314.518219,219.022400 
	C314.973969,208.618683 307.859863,199.435104 296.814972,197.605408 
	C295.241943,197.344803 293.688324,196.966690 291.854797,196.586838 
	C291.854797,192.657211 291.855072,189.016678 291.854736,185.376144 
	C291.854034,177.215607 291.853912,177.215607 283.952026,176.378357 
	C283.893036,170.681320 283.814880,165.439606 283.736694,160.197876 
	C283.736725,160.197876 283.844238,160.013077 283.938477,159.962585 
z"/>
<path fill="#FEBC6F" opacity="1.000000" stroke="none" 
	d="
M260.966003,390.267822 
	C259.484283,390.393860 258.002716,390.628693 256.520935,390.629822 
	C228.189819,390.651459 199.858688,390.645569 171.527573,390.645416 
	C170.045227,390.645416 168.562881,390.645447 166.576172,390.645447 
	C166.475067,388.837738 166.389221,387.303284 166.265778,385.096405 
	C197.820679,385.096405 228.926041,385.096405 260.483643,385.529541 
	C260.945892,387.397736 260.955933,388.832794 260.966003,390.267822 
z"/>
<path fill="#C416FD" opacity="1.000000" stroke="none" 
	d="
M261.443726,390.304932 
	C260.955933,388.832794 260.945892,387.397736 260.944397,385.597534 
	C285.537415,385.232361 310.121887,385.232361 334.986786,385.232361 
	C335.105499,386.888367 335.208801,388.329071 335.353119,390.342010 
	C310.689240,390.342010 286.305359,390.342010 261.443726,390.304932 
z"/>
<path fill="#C311FD" opacity="1.000000" stroke="none" 
	d="
M187.041931,287.096375 
	C184.466949,278.453064 179.179993,272.854095 169.915039,270.802948 
	C179.029907,268.399261 184.871414,263.431213 186.930771,253.970505 
	C189.647293,262.861664 194.746429,268.714874 204.257675,270.742950 
	C194.708008,272.791138 189.894257,278.850372 187.041931,287.096375 
z"/>
<path fill="#FEBB6C" opacity="1.000000" stroke="none" 
	d="
M308.918610,133.917130 
	C306.309021,132.834595 304.032990,131.910782 300.471375,130.465149 
	C310.149506,128.167480 315.927490,123.081055 318.193054,113.953392 
	C320.883331,122.644257 325.884674,128.308319 335.329132,130.066284 
	C330.993988,132.512253 326.849945,133.866348 324.171265,136.637100 
	C321.465820,139.435516 320.213013,143.638290 318.782837,146.354156 
	C315.747162,142.443298 312.499664,138.259567 308.918610,133.917130 
z"/>
<path fill="#144372" opacity="1.000000" stroke="none" 
	d="
M222.680038,342.790466 
	C222.358627,345.842041 222.028488,348.424377 221.698364,351.006714 
	C220.911667,351.010834 220.124969,351.014954 219.338272,351.019043 
	C219.009537,348.958435 218.460770,346.904846 218.394424,344.835846 
	C218.214111,339.213287 218.462524,333.567047 218.033997,327.968994 
	C217.916809,326.437988 216.010941,325.043884 214.925903,323.586975 
	C213.746536,324.782562 211.958649,325.793243 211.526459,327.215820 
	C210.829712,329.509216 210.879074,332.073975 210.877548,334.524292 
	C210.874664,339.172943 211.189529,343.825012 211.071991,348.468109 
	C211.043213,349.604706 209.853729,350.711945 209.197906,351.832672 
	C208.497375,350.686890 207.216522,349.555786 207.187164,348.393066 
	C206.927200,338.096161 206.884552,327.793701 206.788910,317.492798 
	C206.766235,315.052032 206.785522,312.610870 206.785522,310.169922 
	C207.646317,310.088562 208.507111,310.007202 209.367905,309.925873 
	C210.048843,313.200562 210.729782,316.475281 211.425247,319.819885 
	C219.548065,319.760162 221.908844,321.858185 222.495361,330.373352 
	C222.768661,334.341187 222.625641,338.337738 222.680038,342.790466 
z"/>
<path fill="#0F3F6F" opacity="1.000000" stroke="none" 
	d="
M179.006622,346.903381 
	C180.724899,347.205994 182.007263,347.519318 184.137634,348.039856 
	C180.301865,352.486359 176.223999,351.085022 172.913147,350.295502 
	C171.337204,349.919678 169.504715,346.714844 169.407471,344.712921 
	C168.964981,335.602325 168.945755,326.460205 169.161407,317.338562 
	C169.201370,315.648224 170.891220,312.697144 172.048050,312.579773 
	C175.347580,312.245026 178.764877,313.071320 182.135849,313.440857 
	C181.661667,314.358948 181.354401,315.902191 180.682953,316.081451 
	C178.394272,316.692505 174.463531,316.113434 173.916214,317.280945 
	C172.677246,319.923767 173.082642,323.337494 172.771210,327.003845 
	C175.322617,327.003845 177.456787,326.738129 179.476593,327.103882 
	C180.680756,327.321960 181.705368,328.531494 182.810699,329.295319 
	C181.778946,329.910309 180.809341,330.713531 179.695908,331.081116 
	C178.794693,331.378662 177.716568,331.100037 176.724152,331.174072 
	C175.905380,331.235107 174.413162,331.358582 174.386108,331.590515 
	C173.916000,335.620422 173.202530,339.708649 173.553146,343.695251 
	C173.659637,344.905945 176.812897,345.848633 179.006622,346.903381 
z"/>
<path fill="#144372" opacity="1.000000" stroke="none" 
	d="
M274.583069,349.597473 
	C266.116272,353.671387 262.236145,351.437073 262.159729,342.741943 
	C262.107300,336.774292 262.208679,330.804321 262.325867,324.837036 
	C262.350250,323.595459 262.746765,322.361176 262.971802,321.123535 
	C263.440125,321.005219 263.908417,320.886871 264.376709,320.768555 
	C264.977600,322.144562 266.051727,323.505219 266.096802,324.899231 
	C266.283966,330.685883 265.935608,336.496429 266.290131,342.267090 
	C266.394501,343.966492 268.165222,345.563568 269.172302,347.207520 
	C270.647919,345.715820 273.220490,344.345215 273.401062,342.710510 
	C274.035645,336.963898 273.754913,331.121979 274.038574,325.326813 
	C274.108551,323.897247 274.999542,322.507874 275.513092,321.100006 
	C276.323608,322.456543 277.757660,323.779816 277.832245,325.175659 
	C278.096802,330.129089 278.252380,335.143799 277.746429,340.063019 
	C277.421722,343.220245 275.863708,346.250641 274.583069,349.597473 
z"/>
<path fill="#114070" opacity="1.000000" stroke="none" 
	d="
M315.740906,338.234192 
	C315.488281,340.815399 315.315247,342.968353 315.091187,345.115997 
	C314.680695,349.050049 311.972961,351.293121 308.548309,351.520172 
	C305.159729,351.744812 301.572479,349.972778 301.261627,346.131165 
	C300.718140,339.414246 300.384949,332.554962 301.244843,325.921417 
	C301.526306,323.750122 305.704285,320.654083 308.244568,320.509155 
	C313.224426,320.224976 315.579956,323.655975 315.527679,328.434875 
	C315.493500,331.556396 315.699219,334.680542 315.740906,338.234192 
M304.615967,343.546997 
	C305.936768,344.682709 307.257599,345.818390 308.578400,346.954102 
	C309.557159,345.432800 311.241943,343.973541 311.382111,342.378571 
	C311.799103,337.633698 311.838104,332.819214 311.502075,328.068939 
	C311.412872,326.808014 309.442108,325.680176 308.335297,324.491241 
	C307.040070,325.798462 304.775543,327.004822 304.627106,328.431366 
	C304.135803,333.153168 304.407684,337.954346 304.615967,343.546997 
z"/>
<path fill="#114070" opacity="1.000000" stroke="none" 
	d="
M230.752380,321.734070 
	C237.129791,318.394073 242.135910,321.139893 242.773865,328.331146 
	C243.227371,333.443176 243.220703,338.636414 242.912704,343.762939 
	C242.662918,347.920380 240.715256,350.944427 235.799194,351.032410 
	C230.982224,351.118622 228.216843,349.265625 227.961838,344.206024 
	C227.581650,336.662201 226.201401,329.019623 230.752380,321.734070 
M238.926041,329.209808 
	C237.670227,327.929626 236.578094,326.317383 235.060059,325.569214 
	C234.597382,325.341156 232.107147,327.421844 232.013092,328.565826 
	C231.621445,333.329834 231.486832,338.168549 231.936539,342.915558 
	C232.071625,344.341522 234.406250,345.559082 235.733231,346.872101 
	C236.838440,345.267487 238.701797,343.749084 238.896011,342.040924 
	C239.343719,338.103119 238.980820,334.073120 238.926041,329.209808 
z"/>
<path fill="#FEB967" opacity="1.000000" stroke="none" 
	d="
M246.000275,271.999390 
	C238.372330,266.840668 229.430420,263.057709 225.959717,253.040588 
	C225.852280,252.675446 225.869675,252.467865 226.283524,252.578842 
	C231.439362,250.293304 236.241638,248.007278 240.903656,245.464157 
	C244.420303,243.545868 247.757446,241.298492 251.224335,239.585129 
	C250.822067,243.325256 249.836334,246.087845 246.292160,247.724701 
	C244.564346,248.522659 242.980240,250.659256 242.310989,252.538803 
	C239.796295,259.601440 240.567795,266.151337 246.520218,271.433319 
	C246.404648,271.559082 246.289078,271.684814 246.000275,271.999390 
z"/>
<path fill="#0F3F6F" opacity="1.000000" stroke="none" 
	d="
M289.678040,319.953003 
	C291.307556,320.811584 292.559021,321.552124 295.180603,323.103424 
	C287.567230,324.063629 288.031311,328.617584 287.980194,332.859009 
	C287.940247,336.176300 287.728363,339.521301 288.086548,342.800079 
	C288.247955,344.277802 289.611420,345.624268 290.429474,347.030273 
	C291.387085,346.016174 292.413696,345.056885 293.278595,343.969055 
	C293.874725,343.219269 294.246979,342.291504 294.719330,341.443298 
	C295.361603,341.688354 296.003906,341.933411 296.646179,342.178467 
	C296.646179,344.483185 297.221069,347.012604 296.439606,349.011871 
	C295.937256,350.297028 293.264557,351.737885 291.870270,351.476807 
	C288.111450,350.773041 284.343781,349.246613 284.101959,344.485107 
	C283.883423,340.181305 283.956238,335.860657 283.974548,331.547729 
	C283.983673,329.405334 284.158752,327.263611 284.243134,325.455933 
	C282.619720,324.299866 281.279633,323.345551 279.939514,322.391235 
	C281.235931,321.336609 282.532379,320.282013 283.716949,319.318420 
	C284.327911,316.918182 284.951569,314.468048 285.575256,312.017883 
	C286.126282,312.059052 286.677307,312.100250 287.228302,312.141449 
	C287.918884,314.705963 288.609436,317.270477 289.678040,319.953003 
z"/>
<path fill="#0F3F6F" opacity="1.000000" stroke="none" 
	d="
M191.785492,343.506470 
	C192.936493,344.990723 193.871826,346.560211 195.116882,346.865112 
	C195.868820,347.049255 197.102356,345.270844 198.118073,344.372681 
	C198.984055,343.606934 199.847946,342.838806 200.712769,342.071747 
	C201.244095,343.340179 202.575012,345.104279 202.154480,345.782654 
	C200.966217,347.699432 199.154999,350.395111 197.413895,350.530579 
	C194.814011,350.732910 191.980103,349.188507 189.427399,347.997742 
	C188.623047,347.622559 187.995224,346.003937 187.979660,344.944214 
	C187.884491,338.471436 187.628891,331.965881 188.162552,325.532257 
	C188.479431,321.712158 191.852280,319.973907 195.463593,320.179535 
	C199.162064,320.390167 202.215302,322.178802 202.791245,326.319733 
	C202.923737,327.272186 202.139435,328.352142 201.777039,329.373444 
	C200.720108,328.842346 198.946732,328.509308 198.735291,327.744446 
	C197.981613,325.018402 196.283295,323.151184 193.867310,324.448364 
	C192.378357,325.247803 191.400177,328.124634 191.288055,330.130005 
	C191.048248,334.418518 191.520020,338.746857 191.785492,343.506470 
z"/>
<path fill="#1C4977" opacity="1.000000" stroke="none" 
	d="
M245.886017,313.034210 
	C249.777206,313.057953 253.278549,312.869598 256.722809,313.228760 
	C258.287506,313.391968 259.739136,314.639587 261.242035,315.395264 
	C259.719482,316.214996 258.207214,317.054840 256.667542,317.841064 
	C256.252747,318.052887 255.754791,318.101990 254.713409,318.382355 
	C254.713409,327.675385 254.791077,337.055115 254.635513,346.431000 
	C254.610138,347.960510 253.554565,349.472931 252.975159,350.993256 
	C252.110458,349.523285 250.533508,348.070709 250.497131,346.580536 
	C250.267990,337.192932 250.381042,327.796997 250.381042,318.506470 
	C242.859955,316.774902 242.644287,316.517242 245.886017,313.034210 
z"/>
<path fill="#114070" opacity="1.000000" stroke="none" 
	d="
M324.804962,349.208191 
	C321.979126,352.231110 320.728607,350.365662 320.696869,347.855927 
	C320.602753,340.406586 320.608002,332.930511 321.205170,325.515686 
	C321.355988,323.643097 323.892670,320.475861 325.281281,320.503448 
	C328.057678,320.558594 331.281799,321.849152 333.416077,323.682861 
	C335.496521,325.470367 336.130463,328.561890 332.733154,331.686493 
	C331.832184,329.860962 331.296295,328.275696 330.344849,327.000427 
	C329.539185,325.920593 328.252808,325.199402 327.179169,324.319489 
	C326.409790,325.375854 325.003754,326.414734 324.974182,327.491455 
	C324.779419,334.586700 324.880981,341.690063 324.804962,349.208191 
z"/>
<path fill="#FEF8F9" opacity="1.000000" stroke="none" 
	d="
M246.862915,271.582489 
	C240.567795,266.151337 239.796295,259.601440 242.310989,252.538803 
	C242.980240,250.659256 244.564346,248.522659 246.292160,247.724701 
	C249.836334,246.087845 250.822067,243.325256 251.209503,239.544800 
	C251.144791,239.116959 251.065353,239.083527 251.376709,239.059296 
	C251.925781,238.694992 252.163498,238.354904 252.617432,237.831818 
	C253.845810,236.797272 254.857956,235.945694 256.189880,235.024414 
	C256.828094,234.667648 257.146576,234.380569 257.542114,234.113495 
	C257.619202,234.133530 257.748138,234.039932 258.242004,234.074371 
	C270.715271,234.059723 282.698456,234.176910 294.672882,233.906128 
	C303.413422,233.708466 310.745880,225.204391 309.878418,216.812180 
	C308.933075,207.666321 301.092346,201.255707 291.853943,202.630035 
	C291.853943,208.313797 291.687073,214.098541 291.911896,219.868011 
	C292.064880,223.792557 290.519684,224.864136 286.683563,225.145935 
	C279.119415,225.701569 271.610657,227.011536 263.754883,228.009232 
	C262.937103,228.328873 262.443451,228.648804 261.980103,228.960022 
	C262.010406,228.951324 261.982574,228.894730 261.595825,228.838074 
	C255.568390,231.696274 250.285660,231.207520 244.278412,228.861984 
	C238.525009,226.615570 231.980453,226.395477 225.783600,225.284836 
	C224.792221,225.193924 223.800964,225.025375 222.809464,225.024094 
	C212.785492,225.011093 213.984619,225.877274 213.949738,215.715210 
	C213.910889,204.401489 213.955521,193.087479 213.930573,181.773682 
	C213.925125,179.305252 213.926788,177.217163 217.360886,176.938293 
	C223.868896,176.409821 225.922760,173.632507 225.312881,166.909805 
	C224.204636,154.693283 232.626602,142.842926 245.095169,139.074570 
	C257.268585,135.395416 271.112091,141.209946 276.902954,152.558060 
	C278.024811,154.756516 278.678009,157.194122 279.718475,160.279449 
	C279.946075,163.000183 280.357452,165.032791 279.987335,166.911407 
	C279.145966,171.181885 280.602661,174.328110 283.932831,176.833649 
	C291.853912,177.215607 291.854034,177.215607 291.854736,185.376144 
	C291.855072,189.016678 291.854797,192.657211 291.854797,196.586838 
	C293.688324,196.966690 295.241943,197.344803 296.814972,197.605408 
	C307.859863,199.435104 314.973969,208.618683 314.518219,219.022400 
	C314.020691,230.378952 304.664764,238.680069 292.860931,238.874420 
	C282.883759,239.038712 272.901489,238.864594 262.922150,238.935715 
	C257.772064,238.972412 256.774567,239.825928 255.202972,244.790176 
	C263.582642,250.878906 266.634735,259.360840 263.050842,266.599762 
	C260.332367,272.090668 254.262482,274.056549 246.862915,271.582489 
M243.303909,145.017990 
	C240.475586,146.973618 237.647263,148.929260 234.818939,150.884903 
	C243.352829,152.263168 243.352829,152.263168 244.283707,145.094040 
	C244.195282,145.073013 244.106842,145.052002 243.303909,145.017990 
M264.262695,160.936676 
	C265.976837,163.425583 273.374359,164.204041 274.934326,161.984650 
	C275.219971,161.578293 274.878662,160.731232 274.837585,159.318420 
	C273.266113,153.875366 268.838837,157.201614 265.740234,156.544342 
	C265.544250,156.502777 264.834015,158.885452 264.262695,160.936676 
M245.945114,160.980667 
	C247.569199,163.415878 258.004822,164.257629 259.676788,162.010712 
	C259.970032,161.616608 259.627136,160.749176 259.716095,159.327209 
	C258.735931,158.330338 257.869476,156.661606 256.752563,156.472519 
	C254.205017,156.041245 251.531204,156.419891 248.915222,156.311630 
	C245.989990,156.190613 245.724838,157.887878 245.945114,160.980667 
M282.292969,209.750183 
	C282.263550,211.200348 282.103485,212.662048 282.230560,214.098373 
	C282.542175,217.620468 281.188629,219.327972 276.763123,218.321518 
	C270.910675,219.065231 264.814911,219.039200 259.280396,220.788712 
	C254.592300,222.270691 250.783508,222.740921 246.175186,220.670059 
	C239.720642,217.769577 232.791870,216.916031 225.055923,218.723892 
	C224.392792,216.847321 223.190170,214.980453 223.156143,213.092545 
	C222.968597,202.690598 223.066513,192.283508 223.066513,181.878174 
	C222.656967,181.543243 222.247421,181.208298 221.837860,180.873367 
	C220.663086,181.822495 218.484879,182.752167 218.466049,183.723724 
	C218.232559,195.761536 218.313538,207.805450 218.313538,220.139359 
	C221.226685,220.139359 223.506073,220.139359 226.673691,220.477737 
	C234.684387,222.369797 242.684967,224.306961 250.715820,226.109222 
	C252.042664,226.406982 253.571045,226.384750 254.888565,226.048752 
	C261.602844,224.336502 268.278381,222.472519 275.792877,220.795044 
	C279.374817,220.444748 282.956726,220.094437 287.031128,219.695969 
	C287.031128,207.591675 287.080994,195.685440 286.899384,183.782761 
	C286.889191,183.113266 284.973602,182.472839 283.178772,182.098434 
	C282.979156,191.026840 282.779541,199.955231 282.292969,209.750183 
M255.111298,182.196243 
	C255.111298,193.691986 255.111298,205.187729 255.111298,216.237564 
	C262.984192,215.031662 270.262695,213.916779 277.679230,212.780762 
	C277.679230,201.347168 277.679230,189.467834 277.679230,177.253723 
	C269.645660,176.433609 262.320679,177.733093 255.111298,182.196243 
M227.770508,207.397369 
	C227.770508,209.334946 227.770508,211.272522 227.770508,212.811386 
	C235.571960,214.000320 242.711380,215.088348 250.325119,216.248672 
	C250.325119,205.421402 250.380524,194.321045 250.229767,183.223495 
	C250.216339,182.236282 249.069183,180.786270 248.097076,180.367889 
	C241.788681,177.652832 235.240280,176.230591 227.770248,177.466537 
	C227.770248,187.228226 227.770248,196.823608 227.770508,207.397369 
M248.075195,266.446838 
	C253.184067,269.348145 257.090759,268.398682 259.131134,263.759918 
	C261.297791,258.834015 259.166138,252.030685 254.969116,250.476547 
	C251.325836,249.127441 246.811172,251.007370 246.414200,254.818527 
	C246.039871,258.412415 247.100388,262.155762 248.075195,266.446838 
M256.943970,175.392944 
	C258.142365,173.239166 259.340759,171.085388 260.961243,168.173065 
	C254.998322,168.173065 250.609650,168.173065 246.247482,168.173065 
	C245.666550,175.486710 249.292358,178.116394 256.943970,175.392944 
M255.065018,144.424240 
	C251.112076,142.173386 249.320633,143.886581 247.591766,151.743622 
	C251.016235,151.743622 254.391602,151.743622 258.447449,151.743622 
	C257.332703,149.201324 256.421661,147.123520 255.065018,144.424240 
M236.351562,162.126541 
	C238.789490,161.140762 241.983917,160.863556 241.459610,156.942947 
	C232.016144,155.148926 230.883514,155.749390 230.423309,163.258392 
	C232.230103,162.904938 233.891449,162.579941 236.351562,162.126541 
M266.834534,167.873093 
	C262.899139,168.195099 264.367584,170.712311 264.520599,172.831482 
	C274.670502,172.414337 274.670502,172.414337 274.594635,167.866501 
	C272.316772,167.866501 270.026001,167.866501 266.834534,167.873093 
M238.314301,167.870758 
	C235.706512,167.870758 233.098724,167.870758 230.420319,167.870758 
	C231.118134,172.509140 231.894806,172.827545 241.895752,172.519897 
	C240.846802,170.699478 240.039490,169.298431 238.314301,167.870758 
M265.561157,146.797012 
	C264.230133,146.122528 262.899078,145.448029 260.684998,144.326080 
	C261.751404,147.566147 262.445953,149.676376 263.215607,152.014740 
	C264.508484,152.014740 265.639923,152.047852 266.768524,152.005661 
	C267.952576,151.961426 269.133881,151.844971 271.239990,151.693802 
	C269.061035,149.730072 267.631195,148.441467 265.561157,146.797012 
z"/>
<path fill="#E75C67" opacity="1.000000" stroke="none" 
	d="
M255.870117,235.094116 
	C254.857956,235.945694 253.845810,236.797272 252.299011,237.878998 
	C251.531357,238.433960 251.298355,238.758743 251.065353,239.083527 
	C251.065353,239.083527 251.144791,239.116959 251.159637,239.157288 
	C247.757446,241.298492 244.420303,243.545868 240.903656,245.464157 
	C236.241638,248.007278 231.439362,250.293304 226.356354,252.504395 
	C225.946350,243.606873 225.877350,234.894775 225.795975,225.733765 
	C231.980453,226.395477 238.525009,226.615570 244.278412,228.861984 
	C250.285660,231.207520 255.568390,231.696274 261.593781,229.179626 
	C260.568359,231.065186 259.158264,232.552567 257.748138,234.039932 
	C257.748138,234.039932 257.619202,234.133530 257.209412,234.160873 
	C256.489777,234.490189 256.179962,234.792160 255.870117,235.094116 
z"/>
<path fill="#E75E6A" opacity="1.000000" stroke="none" 
	d="
M283.952026,176.378357 
	C280.602661,174.328110 279.145966,171.181885 279.987335,166.911407 
	C280.357452,165.032791 279.946075,163.000183 279.909088,160.593323 
	C280.948242,160.128098 281.967865,160.107010 283.362091,160.141907 
	C283.814880,165.439606 283.893036,170.681320 283.952026,176.378357 
z"/>
<path fill="#F0F3F6" opacity="1.000000" stroke="none" 
	d="
M304.501343,343.136047 
	C304.407684,337.954346 304.135803,333.153168 304.627106,328.431366 
	C304.775543,327.004822 307.040070,325.798462 308.335297,324.491241 
	C309.442108,325.680176 311.412872,326.808014 311.502075,328.068939 
	C311.838104,332.819214 311.799103,337.633698 311.382111,342.378571 
	C311.241943,343.973541 309.557159,345.432800 308.578400,346.954102 
	C307.257599,345.818390 305.936768,344.682709 304.501343,343.136047 
z"/>
<path fill="#F0F3F6" opacity="1.000000" stroke="none" 
	d="
M238.936417,329.645172 
	C238.980820,334.073120 239.343719,338.103119 238.896011,342.040924 
	C238.701797,343.749084 236.838440,345.267487 235.733231,346.872101 
	C234.406250,345.559082 232.071625,344.341522 231.936539,342.915558 
	C231.486832,338.168549 231.621445,333.329834 232.013092,328.565826 
	C232.107147,327.421844 234.597382,325.341156 235.060059,325.569214 
	C236.578094,326.317383 237.670227,327.929626 238.936417,329.645172 
z"/>
<path fill="#FEB967" opacity="1.000000" stroke="none" 
	d="
M258.242004,234.074371 
	C259.158264,232.552567 260.568359,231.065186 261.980530,229.236267 
	C261.982574,228.894730 262.010406,228.951324 262.294525,228.976562 
	C263.078766,228.671036 263.578888,228.340286 264.079010,228.009521 
	C271.610657,227.011536 279.119415,225.701569 286.683563,225.145935 
	C290.519684,224.864136 292.064880,223.792557 291.911896,219.868011 
	C291.687073,214.098541 291.853943,208.313797 291.853943,202.630035 
	C301.092346,201.255707 308.933075,207.666321 309.878418,216.812180 
	C310.745880,225.204391 303.413422,233.708466 294.672882,233.906128 
	C282.698456,234.176910 270.715271,234.059723 258.242004,234.074371 
z"/>
<path fill="#E75E6A" opacity="1.000000" stroke="none" 
	d="
M255.256500,181.791046 
	C262.320679,177.733093 269.645660,176.433609 277.679230,177.253723 
	C277.679230,189.467834 277.679230,201.347168 277.679230,212.780762 
	C270.262695,213.916779 262.984192,215.031662 255.111298,216.237564 
	C255.111298,205.187729 255.111298,193.691986 255.256500,181.791046 
M264.319641,194.629395 
	C262.730133,195.046341 261.006165,195.213440 259.599487,195.970200 
	C258.697357,196.455490 258.262787,197.809998 257.618622,198.774872 
	C258.573273,199.214584 259.544342,200.048340 260.479095,200.009491 
	C262.261597,199.935394 264.096680,199.564270 265.776611,198.951141 
	C268.268280,198.041702 270.643982,196.814362 273.069031,195.722351 
	C270.421783,195.273102 267.774506,194.823853 264.319641,194.629395 
M261.629700,186.102219 
	C260.252747,187.098236 258.846313,188.059372 257.551880,189.153061 
	C257.442169,189.245758 258.100830,190.720459 258.368744,190.709732 
	C259.957336,190.646164 261.535980,190.333664 263.117950,190.104858 
	C262.877930,188.780823 262.637909,187.456802 261.629700,186.102219 
M272.609589,185.338135 
	C270.697876,185.729919 268.786133,186.121704 266.874420,186.513489 
	C267.411224,187.354935 267.870331,188.843918 268.499023,188.919357 
	C270.587860,189.169952 273.479645,190.025513 272.609589,185.338135 
z"/>
<path fill="#E75E6A" opacity="1.000000" stroke="none" 
	d="
M227.770386,206.908188 
	C227.770248,196.823608 227.770248,187.228226 227.770248,177.466537 
	C235.240280,176.230591 241.788681,177.652832 248.097076,180.367889 
	C249.069183,180.786270 250.216339,182.236282 250.229767,183.223495 
	C250.380524,194.321045 250.325119,205.421402 250.325119,216.248672 
	C242.711380,215.088348 235.571960,214.000320 227.770508,212.811386 
	C227.770508,211.272522 227.770508,209.334946 227.770386,206.908188 
M237.120224,189.543777 
	C239.721893,190.045776 242.308167,190.692108 244.933517,190.972321 
	C245.865784,191.071838 246.893082,190.280853 247.876984,189.896378 
	C247.264877,188.886215 246.856262,187.258698 246.003815,186.977722 
	C243.043335,186.001907 239.954025,185.204117 236.861786,184.934723 
	C235.412903,184.808502 233.845337,186.044785 232.331543,186.663528 
	C233.660706,187.563477 234.989868,188.463409 237.120224,189.543777 
M245.611084,200.133957 
	C246.349762,199.216034 247.088455,198.298096 247.827133,197.380173 
	C246.474777,196.613937 245.186829,195.638565 243.736115,195.191772 
	C243.208786,195.029373 242.293121,196.127914 241.554642,196.651123 
	C242.651474,197.770721 243.748306,198.890320 245.611084,200.133957 
z"/>
<path fill="#C721FD" opacity="1.000000" stroke="none" 
	d="
M225.785461,220.139359 
	C223.506073,220.139359 221.226685,220.139359 218.313538,220.139359 
	C218.313538,207.805450 218.232559,195.761536 218.466049,183.723724 
	C218.484879,182.752167 220.663086,181.822495 221.837860,180.873367 
	C222.247421,181.208298 222.656967,181.543243 223.066513,181.878174 
	C223.066513,192.283508 222.968597,202.690598 223.156143,213.092545 
	C223.190170,214.980453 224.392792,216.847321 225.435959,219.044281 
	C225.828964,219.623810 225.818787,219.882050 225.785461,220.139359 
z"/>
<path fill="#E86873" opacity="1.000000" stroke="none" 
	d="
M226.229584,220.308548 
	C225.818787,219.882050 225.828964,219.623810 225.795502,219.170593 
	C232.791870,216.916031 239.720642,217.769577 246.175186,220.670059 
	C250.783508,222.740921 254.592300,222.270691 259.280396,220.788712 
	C264.814911,219.039200 270.910675,219.065231 276.834503,218.670746 
	C276.259735,219.567215 275.613617,220.114426 274.967499,220.661636 
	C268.278381,222.472519 261.602844,224.336502 254.888565,226.048752 
	C253.571045,226.384750 252.042664,226.406982 250.715820,226.109222 
	C242.684967,224.306961 234.684387,222.369797 226.229584,220.308548 
z"/>
<path fill="#FEBC6F" opacity="1.000000" stroke="none" 
	d="
M247.802460,266.140076 
	C247.100388,262.155762 246.039871,258.412415 246.414200,254.818527 
	C246.811172,251.007370 251.325836,249.127441 254.969116,250.476547 
	C259.166138,252.030685 261.297791,258.834015 259.131134,263.759918 
	C257.090759,268.398682 253.184067,269.348145 247.802460,266.140076 
M251.890640,253.100571 
	C251.443405,255.178787 250.880081,257.248474 250.725449,259.348236 
	C250.709686,259.562103 253.149200,259.956818 254.449341,260.267609 
	C254.666016,257.619110 256.859131,254.501114 251.890640,253.100571 
z"/>
<path fill="#FCB877" opacity="1.000000" stroke="none" 
	d="
M275.380188,220.728333 
	C275.613617,220.114426 276.259735,219.567215 277.212921,218.895874 
	C281.188629,219.327972 282.542175,217.620468 282.230560,214.098373 
	C282.103485,212.662048 282.263550,211.200348 282.766602,209.176010 
	C283.475098,199.674179 283.709961,190.746536 283.944824,181.818878 
	C284.973602,182.472839 286.889191,183.113266 286.899384,183.782761 
	C287.080994,195.685440 287.031128,207.591675 287.031128,219.695969 
	C282.956726,220.094437 279.374817,220.444748 275.380188,220.728333 
z"/>
<path fill="#E75E6A" opacity="1.000000" stroke="none" 
	d="
M256.589722,175.567566 
	C249.292358,178.116394 245.666550,175.486710 246.247482,168.173065 
	C250.609650,168.173065 254.998322,168.173065 260.961243,168.173065 
	C259.340759,171.085388 258.142365,173.239166 256.589722,175.567566 
z"/>
<path fill="#C311FD" opacity="1.000000" stroke="none" 
	d="
M255.287811,144.734985 
	C256.421661,147.123520 257.332703,149.201324 258.447449,151.743622 
	C254.391602,151.743622 251.016235,151.743622 247.591766,151.743622 
	C249.320633,143.886581 251.112076,142.173386 255.287811,144.734985 
z"/>
<path fill="#C721FD" opacity="1.000000" stroke="none" 
	d="
M235.952179,162.190735 
	C233.891449,162.579941 232.230103,162.904938 230.423309,163.258392 
	C230.883514,155.749390 232.016144,155.148926 241.459610,156.942947 
	C241.983917,160.863556 238.789490,161.140762 235.952179,162.190735 
z"/>
<path fill="#C721FD" opacity="1.000000" stroke="none" 
	d="
M246.069504,160.121460 
	C245.724838,157.887878 245.989990,156.190613 248.915222,156.311630 
	C251.531204,156.419891 254.205017,156.041245 256.752563,156.472519 
	C257.869476,156.661606 258.735931,158.330338 259.213806,159.709854 
	C254.497528,160.102158 250.283524,160.111816 246.069504,160.121460 
z"/>
<path fill="#E75E6A" opacity="1.000000" stroke="none" 
	d="
M283.561798,181.958649 
	C283.709961,190.746536 283.475098,199.674179 282.910095,208.742737 
	C282.779541,199.955231 282.979156,191.026840 283.561798,181.958649 
z"/>
<path fill="#E75E6A" opacity="1.000000" stroke="none" 
	d="
M267.284912,167.869797 
	C270.026001,167.866501 272.316772,167.866501 274.594635,167.866501 
	C274.670502,172.414337 274.670502,172.414337 264.520599,172.831482 
	C264.367584,170.712311 262.899139,168.195099 267.284912,167.869797 
z"/>
<path fill="#E75E6A" opacity="1.000000" stroke="none" 
	d="
M238.773239,167.884064 
	C240.039490,169.298431 240.846802,170.699478 241.895752,172.519897 
	C231.894806,172.827545 231.118134,172.509140 230.420319,167.870758 
	C233.098724,167.870758 235.706512,167.870758 238.773239,167.884064 
z"/>
<path fill="#E75E6A" opacity="1.000000" stroke="none" 
	d="
M246.007309,160.551056 
	C250.283524,160.111816 254.497528,160.102158 259.144775,160.096420 
	C259.627136,160.749176 259.970032,161.616608 259.676788,162.010712 
	C258.004822,164.257629 247.569199,163.415878 246.007309,160.551056 
z"/>
<path fill="#C721FD" opacity="1.000000" stroke="none" 
	d="
M264.363007,160.140305 
	C264.834015,158.885452 265.544250,156.502777 265.740234,156.544342 
	C268.838837,157.201614 273.266113,153.875366 274.391724,159.703278 
	C270.751556,160.105515 267.557281,160.122910 264.363007,160.140305 
z"/>
<path fill="#C416FD" opacity="1.000000" stroke="none" 
	d="
M243.944016,144.931549 
	C243.352829,152.263168 243.352829,152.263168 234.818939,150.884903 
	C237.647263,148.929260 240.475586,146.973618 243.642700,144.999512 
	C243.981506,144.981049 243.944016,144.931549 243.944016,144.931549 
z"/>
<path fill="#C416FD" opacity="1.000000" stroke="none" 
	d="
M265.881287,146.974945 
	C267.631195,148.441467 269.061035,149.730072 271.239990,151.693802 
	C269.133881,151.844971 267.952576,151.961426 266.768524,152.005661 
	C265.639923,152.047852 264.508484,152.014740 263.215607,152.014740 
	C262.445953,149.676376 261.751404,147.566147 260.684998,144.326080 
	C262.899078,145.448029 264.230133,146.122528 265.881287,146.974945 
z"/>
<path fill="#E75E6A" opacity="1.000000" stroke="none" 
	d="
M264.312866,160.538483 
	C267.557281,160.122910 270.751556,160.105515 274.386292,160.087860 
	C274.878662,160.731232 275.219971,161.578293 274.934326,161.984650 
	C273.374359,164.204041 265.976837,163.425583 264.312866,160.538483 
z"/>
<path fill="#E75C67" opacity="1.000000" stroke="none" 
	d="
M263.754883,228.009247 
	C263.578888,228.340286 263.078766,228.671036 262.264221,228.985260 
	C262.443451,228.648804 262.937103,228.328873 263.754883,228.009247 
z"/>
<path fill="#FEB967" opacity="1.000000" stroke="none" 
	d="
M251.376709,239.059296 
	C251.298355,238.758743 251.531357,238.433960 252.082794,238.061996 
	C252.163498,238.354904 251.925781,238.694992 251.376709,239.059296 
z"/>
<path fill="#FEB967" opacity="1.000000" stroke="none" 
	d="
M256.189880,235.024429 
	C256.179962,234.792160 256.489777,234.490189 257.132324,234.140839 
	C257.146576,234.380569 256.828094,234.667648 256.189880,235.024429 
z"/>
<path fill="#C416FD" opacity="1.000000" stroke="none" 
	d="
M243.999969,145.006012 
	C244.106842,145.052002 244.195282,145.073013 244.113861,145.012787 
	C243.944016,144.931549 243.981506,144.981049 243.999969,145.006012 
z"/>
<path fill="#FEF8F9" opacity="1.000000" stroke="none" 
	d="
M264.723450,194.501999 
	C267.774506,194.823853 270.421783,195.273102 273.069031,195.722351 
	C270.643982,196.814362 268.268280,198.041702 265.776611,198.951141 
	C264.096680,199.564270 262.261597,199.935394 260.479095,200.009491 
	C259.544342,200.048340 258.573273,199.214584 257.618622,198.774872 
	C258.262787,197.809998 258.697357,196.455490 259.599487,195.970200 
	C261.006165,195.213440 262.730133,195.046341 264.723450,194.501999 
z"/>
<path fill="#FEF8F9" opacity="1.000000" stroke="none" 
	d="
M262.013794,186.117493 
	C262.637909,187.456802 262.877930,188.780823 263.117950,190.104858 
	C261.535980,190.333664 259.957336,190.646164 258.368744,190.709732 
	C258.100830,190.720459 257.442169,189.245758 257.551880,189.153061 
	C258.846313,188.059372 260.252747,187.098236 262.013794,186.117493 
z"/>
<path fill="#FEF8F9" opacity="1.000000" stroke="none" 
	d="
M272.799225,185.687012 
	C273.479645,190.025513 270.587860,189.169952 268.499023,188.919357 
	C267.870331,188.843918 267.411224,187.354935 266.874420,186.513489 
	C268.786133,186.121704 270.697876,185.729919 272.799225,185.687012 
z"/>
<path fill="#FEF8F9" opacity="1.000000" stroke="none" 
	d="
M236.719620,189.453552 
	C234.989868,188.463409 233.660706,187.563477 232.331543,186.663544 
	C233.845337,186.044785 235.412903,184.808502 236.861786,184.934723 
	C239.954025,185.204117 243.043335,186.001907 246.003815,186.977722 
	C246.856262,187.258698 247.264877,188.886215 247.876984,189.896393 
	C246.893082,190.280853 245.865784,191.071838 244.933517,190.972321 
	C242.308167,190.692108 239.721893,190.045776 236.719620,189.453552 
z"/>
<path fill="#FEF8F9" opacity="1.000000" stroke="none" 
	d="
M245.228119,200.071945 
	C243.748306,198.890320 242.651474,197.770721 241.554657,196.651123 
	C242.293121,196.127914 243.208786,195.029373 243.736115,195.191772 
	C245.186829,195.638565 246.474777,196.613937 247.827133,197.380173 
	C247.088455,198.298096 246.349762,199.216034 245.228119,200.071945 
z"/>
<path fill="#FEF8F9" opacity="1.000000" stroke="none" 
	d="
M252.294022,252.996643 
	C256.859131,254.501114 254.666016,257.619110 254.449341,260.267609 
	C253.149200,259.956818 250.709686,259.562103 250.725449,259.348236 
	C250.880081,257.248474 251.443405,255.178787 252.294022,252.996643 
z"/>
</svg>